<svg xmlns="http://www.w3.org/2000/svg" viewBox="0 0 512 512">
  <defs>
    <linearGradient id="bg" x1="0%" y1="0%" x2="100%" y2="100%">
      <stop offset="0%" style="stop-color:#7C3AED"/>
      <stop offset="100%" style="stop-color:#A78BFA"/>
    </linearGradient>
    <linearGradient id="moon" x1="0%" y1="0%" x2="100%" y2="100%">
      <stop offset="0%" style="stop-color:#c5a028"/>
      <stop offset="100%" style="stop-color:#f5d060"/>
    </linearGradient>
  </defs>
  <!-- Background Circle -->
  <circle cx="256" cy="256" r="256" fill="url(#bg)"/>
  <!-- Crescent Moon -->
  <path d="M320 130c-80 0-145 65-145 145s65 145 145 145c25 0 48-6 68-17-30 25-68 40-110 40-95 0-172-77-172-172S183 99 278 99c42 0 80 15 110 40-20-11-43-17-68-9z" fill="url(#moon)" opacity="0.95"/>
  <!-- Star 1 -->
  <polygon points="180,160 186,175 202,175 189,185 194,200 180,190 166,200 171,185 158,175 174,175" fill="#f5d060" opacity="0.9"/>
  <!-- Star 2 -->
  <polygon points="370,200 374,210 385,210 376,217 379,228 370,221 361,228 364,217 355,210 366,210" fill="#f5d060" opacity="0.7"/>
  <!-- Star 3 -->
  <polygon points="220,120 223,128 231,128 225,133 227,141 220,136 213,141 215,133 209,128 217,128" fill="#f5d060" opacity="0.6"/>
</svg>
